{"title":"Infamous.Assassinations.Dr.Hendrik.Verwoerd.(2007).TVRip.(DivX).","uid":6658476,"size":298514336,"categoryP":"video","categoryS":"tv_shows","magnet":"?xt=urn:btih:b96145e107a12fc30e2c4af26b6e165644e41ea7&amp;dn=Infamous.Assassinations.Dr.Hendrik.Verwoerd.%282007%29.TVRip.%28DivX%29.&amp;tr=udp%3A%2F%2Ftracker.openbittorrent.com%3A80&amp;tr=udp%3A%2F%2Fopen.demonii.com%3A1337&amp;tr=udp%3A%2F%2Ftracker.coppersurfer.tk%3A6969&amp;tr=udp%3A%2F%2Fexodus.desync.com%3A6969","seeders":0,"leechers":0,"uploader":"User_01","files":-1,"time":1315416910,"description":"Infamous Assassinations is a 2007 British documentary television series about high-profile murders and attempted murders of public figures. It is currently being shown on Yesterday. Check here for full list\n &lt;a href=&quot;\nhttp://en.wikipedia.org/wiki/Infamous_Assassinations&quot; rel=&quot;nofollow&quot; target=&quot;_NEW&quot;&gt;\nhttp://en.wikipedia.org/wiki/Infamous_Assassinations&lt;/a&gt;\n\nOn 1966 in South Africa, South African Prime Minister Verwoerd was stabbed to death by Dimitri Tsafendas.\n\nMediaInfo\nGeneral\nFormat                           : AVI\nFormat/Info                      : Audio Video Interleave\nFile size                        : 285 MiB\nDuration                         : 22mn 38s\nOverall bit rate                 : 1 758 Kbps\n\nVideo\nID                               : 0\nFormat                           : MPEG-4 Visual\nFormat settings, BVOP            : Yes\nFormat settings, QPel            : No\nFormat settings, GMC             : No warppoints\nFormat settings, Matrix          : Default (H.263)\nCodec ID                         : DIVX\nCodec ID/Info                    : Project Mayo\nCodec ID/Hint                    : DivX 4\nDuration                         : 22mn 29s\nBit rate                         : 1 503 Kbps\nWidth                            : 512 pixels\nHeight                           : 384 pixels\nDisplay aspect ratio             : 4:3\nframe rate                       : 25.000 fps\nResolution                       : 24 bits\nScan type                        : Progressive\nBits/(Pixel*frame)               : 0.306\nStream size                      : 242 MiB (85%)\n\nAudio\nFormat                           : ADPCM\nCodec ID                         : 11\nCodec ID/Hint                    : Intel\nDuration                         : 22mn 38s\nBit rate mode                    : Constant\nBit rate                         : 256 Kbps\nChannel(s)                       : 2 channels\nSampling rate                    : 32.0 KHz\nResolution                       : 4 bits\nStream size                      : 41.5 MiB (15%)\nInterleave, duration             : 40 ms (1.00 video frame)","torrent":{"xt":"urn:btih:b96145e107a12fc30e2c4af26b6e165644e41ea7","amp;dn":"Infamous.Assassinations.Dr.Hendrik.Verwoerd.%282007%29.TVRip.%28DivX%29.","amp;tr":["udp%3A%2F%2Ftracker.openbittorrent.com%3A80","udp%3A%2F%2Fopen.demonii.com%3A1337","udp%3A%2F%2Ftracker.coppersurfer.tk%3A6969","udp%3A%2F%2Fexodus.desync.com%3A6969"],"infoHash":"b96145e107a12fc30e2c4af26b6e165644e41ea7","infoHashBuffer":{"type":"Buffer","data":[185,97,69,225,7,161,47,195,14,44,74,242,107,110,22,86,68,228,30,167]},"announce":[],"urlList":[]}}